# xmcd
#
# Track frame offsets:
#	150
#	41974
#	44148
#	99904
#	156481
#	198613
#
# Disc length: 2889 seconds
#
# Revision: 1
# Processed by: cddbd v1.5.2PL0 Copyright (c) Steve Scherf et al.
# Submitted via: audiograbber 1.83.01
#
DISCID=570b4706
DTITLE=Grateful Dead - 78-10-22 Winterland Arena, San Francisco CA
DYEAR=1900
DGENRE=
TTITLE0=Jack Straw
TTITLE1=Intro
TTITLE2=Scarlet Begonias
TTITLE3=Fire On The Mountain
TTITLE4=Samson and Delilah
TTITLE5=From The Heart Of Me
EXTD=
EXTT0=
EXTT1=
EXTT2=
EXTT3=
EXTT4=
EXTT5=
PLAYORDER=
